<?xml version="1.0" encoding="utf-8"?>
<!-- Generator: Adobe Illustrator 21.0.2, SVG Export Plug-In . SVG Version: 6.00 Build 0)  -->
<svg version="1.1" id="Layer_1" xmlns="http://www.w3.org/2000/svg" xmlns:xlink="http://www.w3.org/1999/xlink" x="0px" y="0px"
	 viewBox="0 0 2221.4 1324.4" enable-background="new 0 0 2221.4 1324.4" xml:space="preserve">
<g>
	<g>
		<polygon fill="#B7B7BB" points="136,1125.8 136,914.7 102.4,914.7 102.4,880.8 207.1,880.8 207.1,914.7 173.5,914.7 173.5,1125.8 
					"/>
		<polygon fill="#B7B7BB" points="356.9,880.8 356.9,914.7 311,914.7 311,984 355.1,984 355.1,1018 311,1018 311,1091.8 
			357.6,1091.8 357.6,1125.8 273.6,1125.8 273.6,880.8 		"/>
		<path fill="#B7B7BB" d="M538.2,1025.3v57.1c0,30.4-15,45.5-45.5,45.5h-18.6c-30.5,0-45.5-15-45.5-45.5V924.2
			c0-30.5,15-45.5,45.5-45.5h18.2c30.5,0,45.2,14.7,45.2,45.2v50h-36.7v-48c0-9.8-4.5-14.3-14-14.3h-6.3c-9.8,0-14.4,4.5-14.4,14.3
			v154.7c0,9.8,4.5,14.3,14.4,14.3h7c9.5,0,14-4.6,14-14.3v-55.3L538.2,1025.3z"/>
		<polygon fill="#B7B7BB" points="684.5,984 684.5,880.8 721.9,880.8 721.9,1125.8 684.5,1125.8 684.5,1018 648.4,1018 
			648.4,1125.8 611,1125.8 611,880.8 648.4,880.8 648.4,984 		"/>
		<polygon fill="#B7B7BB" points="867.5,1125.8 829.4,960.9 829.7,1004 829.7,1125.8 796.1,1125.8 796.1,880.8 839.9,880.8 
			874.9,1032 874.5,991 874.5,880.8 908.1,880.8 908.1,1125.8 		"/>
		<path fill="#B7B7BB" d="M1047.1,878.7h-19.9c-30.5,0-45.5,15-45.5,45.5v158.2c0,30.4,15,45.5,45.5,45.5h19.9
			c30.4,0,45.5-15,45.5-45.5V924.2C1092.6,893.7,1077.5,878.7,1047.1,878.7z M1055.1,1080.7c0,9.8-4.6,14.3-14,14.3h-7.7
			c-9.8,0-14.3-4.6-14.3-14.3V925.9c0-9.8,4.5-14.3,14.3-14.3h7.7c9.4,0,14,4.5,14,14.3V1080.7z"/>
		<polygon fill="#B7B7BB" points="1203.5,880.8 1203.5,1091.8 1244.8,1091.8 1244.8,1125.8 1166.1,1125.8 1166.1,880.8 		"/>
		<path fill="#B7B7BB" d="M1375.7,878.7h-19.9c-30.4,0-45.5,15-45.5,45.5v158.2c0,30.4,15.1,45.5,45.5,45.5h19.9
			c30.4,0,45.5-15,45.5-45.5V924.2C1421.2,893.7,1406.2,878.7,1375.7,878.7z M1383.8,1080.7c0,9.8-4.6,14.3-14,14.3h-7.7
			c-9.8,0-14.3-4.6-14.3-14.3V925.9c0-9.8,4.6-14.3,14.3-14.3h7.7c9.4,0,14,4.5,14,14.3V1080.7z"/>
		<path fill="#B7B7BB" d="M1549,1024.3v-32.2h56v90.3c0,30.4-15.1,45.5-45.5,45.5h-19.9c-30.4,0-45.5-15-45.5-45.5V924.2
			c0-30.5,15.1-45.5,45.5-45.5h19.6c30.4,0,45.2,15,45.2,45.2v39.5h-36.8v-37.5c0-9.8-4.6-14.3-14-14.3h-7.7
			c-9.8,0-14.3,4.5-14.3,14.3v154.7c0,9.8,4.6,14.3,14.3,14.3h8.4c9.8,0,14.3-4.6,14.3-14.3v-56.3H1549z"/>
		<rect x="1678.5" y="880.8" fill="#B7B7BB" width="37.4" height="245"/>
		<polygon fill="#B7B7BB" points="1873.8,880.8 1873.8,914.7 1827.9,914.7 1827.9,984 1872,984 1872,1018 1827.9,1018 
			1827.9,1091.8 1874.4,1091.8 1874.4,1125.8 1790.4,1125.8 1790.4,880.8 		"/>
		<path fill="#B7B7BB" d="M2051.9,1042.5v39.9c0,30.4-15,45.5-45.5,45.5H1990c-30.4,0-45.2-15-45.2-45.2v-51.8h36.4v50.4
			c0,9.4,4.6,14,14.3,14h4.9c9.8,0,14.3-4.6,14.3-14v-33.6c0-10.2-3.5-14.7-10.5-20l-37.8-27.7c-16.8-11.9-21.7-23.5-21.7-42.3
			v-33.6c0-30.5,15.1-45.5,45.5-45.5h15.8c30.1,0,45.2,15,45.2,45.2v44.5h-36.8v-43c0-9.5-4.6-14-14-14h-4.6c-9.4,0-14,4.5-14,14
			v27.3c0,10.2,3.5,15,10.5,20l37.8,27.7C2046.7,1012,2051.9,1022.5,2051.9,1042.5z"/>
	</g>
	<g>
		<path fill="#323233" d="M198.7,497.2h37c22.7,0,33.6-10.9,33.6-34.4V315c0-23.5-10.9-34.4-33.6-34.4H108.8v-79h141.1
			c73.1,0,109.2,36.1,109.2,109.2V467c0,73.1-36.1,109.2-109.2,109.2h-51.2v213.3h-89.9V497.2H198.7z"/>
		<path fill="#323233" d="M668.7,589.6v199.9h-89.9V591.3c0-26-11.8-37.8-37.8-37.8h-40.3v236h-89.9v-588h147.8
			c73.1,0,109.2,36.1,109.2,109.2v110.9c0,52.1-18.5,77.3-51.2,90.7C653.6,522.4,668.7,545.1,668.7,589.6z M544.4,281.3h-43.7v194
			H541c25.2,0,37-11.8,37-36.1V315C578,292.3,567,281.3,544.4,281.3z"/>
		<path fill="#323233" d="M928.7,201.5V283h-110v166.4h105.8v81.5H818.7v177.2h111.7v81.5H728.8v-588L928.7,201.5z"/>
		<path fill="#323233" d="M1240.8,589.7v95.8c0,73.1-36.1,109.2-109.2,109.2h-39.5c-73.1,0-108.4-36.1-108.4-108.4V562h87.4v121
			c0,22.7,10.9,33.6,34.4,33.6h11.8c23.5,0,34.4-10.9,34.4-33.6v-80.7c0-24.4-8.4-35.3-25.2-47.9l-90.7-66.4
			c-40.3-28.6-52.1-56.3-52.1-101.6v-80.6c0-73.1,36.1-109.2,109.2-109.2h37.8c72.2,0,108.4,36.1,108.4,108.4v106.7H1151V308.3
			c0-22.7-10.9-33.6-33.6-33.6h-10.9c-22.7,0-33.6,10.9-33.6,33.6v65.5c0,24.4,8.4,36.1,25.2,47.9l90.7,66.3
			C1228.2,516.6,1240.8,541.8,1240.8,589.7z"/>
		<path fill="#323233" d="M1497.7,201.5V283h-110v166.4h105.8v81.5h-105.9v177.2h111.7v81.5h-201.6v-588L1497.7,201.5z"/>
		<path fill="#323233" d="M1727.2,789.5l-91.6-395.6l0.8,103.3v292.3h-80.6v-588h105l84,362.9l-0.8-98.3V201.5h80.6v588H1727.2z"/>
		<path fill="#323233" d="M1948.4,789.5V283h-80.6v-81.4H2119V283h-80.6v506.6H1948.4z"/>
		<path fill="#EE7624" d="M118.8,315.5h70c5.5,0,10,4.5,10,10v129c0,5.5-4.5,10-10,10h-70c-5.5,0-10-4.5-10-10v-129
			C108.8,320,113.3,315.5,118.8,315.5z"/>
	</g>
</g>
</svg>
